<svg xmlns="http://www.w3.org/2000/svg" xmlns:xlink="http://www.w3.org/1999/xlink" viewBox="0 0 2034.74 1939.11"><defs><style>.cls-1{fill:#fff;}.cls-2{fill:#d94097;}.cls-3{fill:#57c9e8;}.cls-4{fill:#7a4d9f;}.cls-5{fill:url(#New_Gradient_Swatch_1);}</style><linearGradient id="New_Gradient_Swatch_1" x1="269.52" y1="720" x2="1170.48" y2="720" gradientUnits="userSpaceOnUse"><stop offset="0" stop-color="#40c3d5"/><stop offset="1" stop-color="#b9529f"/></linearGradient></defs><title>Yeet</title><g id="Layer_1" data-name="Layer 1"><rect class="cls-1" x="183.42" y="194.39" width="1440" height="1440"/><path class="cls-2" d="M942.78,1598.61C928.48,1614,733.52,1819,572.84,1742.83,511.14,1713.57,522.33,1675,425,1569.9c-149.8-161.84-261-162-299.76-257.61-38.28-94.57,22.8-212.44,115-226.9,96.33-15.12,161.09,92.95,296.17,95.76,121.9,2.53,127.85-84.24,221.58-67.05,121.28,22.23,269.65,196.51,266.4,334.36C1022.9,1512.26,989.39,1548.37,942.78,1598.61Z" transform="translate(190.07 179.37)"/><path class="cls-2" d="M1831.88,134.93c52.37,140.73-67.66,290.64-150.91,357.54-119,95.61-313.2,142.42-408.61,65-65.16-52.87-37.83-126-125.37-199.66-72.4-60.89-119.74-34.93-167.16-85.9C889.45,174.76,930.82-60,1017-87.95c76.56-24.82,121.49,135.38,276.28,153.23,146.3,16.88,201.49-115.25,346.22-88C1723.36-7,1802.4,55.73,1831.88,134.93Z" transform="translate(190.07 179.37)"/><path class="cls-3" d="M-22.78,1042.15c-56,7.85-109.37-75.48-122.36-95.76-56.57-88.28-47-182.48-38.27-269,8.1-80,17.93-177.08,73.6-198.82,33.4-13,50.59,13.81,117.1,9.81C79.85,484,93.71,449.94,131.84,458c69.25,14.56,128.83,149,96.18,250.33-17.7,55-46.52,50.55-113.61,138.44C25.47,963.21,27.11,1035.15-22.78,1042.15Z" transform="translate(190.07 179.37)"/><path class="cls-3" d="M1838.53,987.46c5.82,27.85-163,37.29-349.4,166.39-46.08,31.91-88,67.51-129.06,53.78-47.22-15.79-43.25-80.12-80.49-140.42C1187.68,918.43,933.87,938.46,935,902c1.12-34.71,229.47-1,364.69-143.06,47.46-49.87,62.38-99.27,92.24-95.55,55,6.84,26.24,177.19,127.38,266.81C1633.84,1031.66,1832,956.29,1838.53,987.46Z" transform="translate(190.07 179.37)"/><path class="cls-4" d="M586.07,102.6C566.52,208.33,730,301,710.12,334.79,692.19,365.42,564.54,279,372.67,279.14c-137.32.08-248.88,44.44-258.44,20.51-9.4-23.53,99.59-63.85,97.42-131.09C210.21,123.48,160.39,115,132.12,56c-40.05-83.54-10-212.42,46.55-232.8,61.23-22.06,100.81,102,252.2,141.62C547.4-4.65,645-46.48,657.85-13.8,668.68,13.67,597.9,38.59,586.07,102.6Z" transform="translate(190.07 179.37)"/></g><g id="Layer_2" data-name="Layer 2"><path class="cls-5" d="M269.52,389.25h85.39V979.11H637.57v71.64H269.52ZM687.6,1000.7l367.07-536.86V460.9H719V389.25h446.56v52L800.47,976.16v3h370v71.64H687.6Z" transform="translate(190.07 179.37)"/></g></svg>