<?xml version="1.0" encoding="utf-8"?>
<!-- Generator: Adobe Illustrator 24.0.1, SVG Export Plug-In . SVG Version: 6.00 Build 0)  -->
<svg version="1.1" id="Layer_1" xmlns="http://www.w3.org/2000/svg" xmlns:xlink="http://www.w3.org/1999/xlink" x="0px" y="0px"
	 viewBox="0 0 2560 1140" style="enable-background:new 0 0 2560 1140;" xml:space="preserve">
<style type="text/css">
	.st0{fill:url(#SVGID_1_);}
	.st1{fill:#D94097;}
	.st2{fill:#57C9E8;}
	.st3{fill:#7A4D9F;}
</style>
<linearGradient id="SVGID_1_" gradientUnits="userSpaceOnUse" x1="829.52" y1="570" x2="1730.48" y2="570">
	<stop  offset="0" style="stop-color:#41C2D5"/>
	<stop  offset="1" style="stop-color:#B8529E"/>
</linearGradient>
<path class="st0" d="M914.91,829.11V239.25h-85.39v661.5h368.05v-71.64H914.91z M1360.47,829.11v-2.95l365.1-534.89v-52.02h-446.56
	v71.65h335.66v2.94L1247.6,850.7v50.05h482.88v-71.64H1360.47z"/>
<path class="st1" d="M1491.61,1429.16c-14.3,15.39-209.26,220.39-369.94,144.22c-61.7-29.26-50.51-67.83-147.84-172.93
	c-149.8-161.84-261-162-299.76-257.61c-38.28-94.57,22.8-212.44,115-226.9c96.33-15.12,161.09,92.95,296.17,95.76
	c121.9,2.53,127.85-84.24,221.58-67.05c121.28,22.23,269.65,196.51,266.4,334.36C1571.73,1342.81,1538.22,1378.92,1491.61,1429.16z"
	/>
<path class="st1" d="M2380.71-34.52c52.37,140.73-67.66,290.64-150.91,357.54c-119,95.61-313.2,142.42-408.61,65
	c-65.16-52.87-37.83-126-125.37-199.66c-72.4-60.89-119.74-34.93-167.16-85.9c-90.38-97.15-49.01-331.91,37.17-359.86
	c76.56-24.82,121.49,135.38,276.28,153.23c146.3,16.88,201.49-115.25,346.22-88C2272.19-176.45,2351.23-113.72,2380.71-34.52z"/>
<path class="st2" d="M526.05,872.7c-56,7.85-109.37-75.48-122.36-95.76c-56.57-88.28-47-182.48-38.27-269
	c8.1-80,17.93-177.08,73.6-198.82c33.4-13,50.59,13.81,117.1,9.81c72.56-4.38,86.42-38.44,124.55-30.38
	c69.25,14.56,128.83,149,96.18,250.33c-17.7,55-46.52,50.55-113.61,138.44C574.3,793.76,575.94,865.7,526.05,872.7z"/>
<path class="st2" d="M2387.36,818.01c5.82,27.85-163,37.29-349.4,166.39c-46.08,31.91-88,67.51-129.06,53.78
	c-47.22-15.79-43.25-80.12-80.49-140.42c-91.9-148.78-345.71-128.75-344.58-165.21c1.12-34.71,229.47-1,364.69-143.06
	c47.46-49.87,62.38-99.27,92.24-95.55c55,6.84,26.24,177.19,127.38,266.81C2182.67,862.21,2380.83,786.84,2387.36,818.01z"/>
<path class="st3" d="M1134.9-66.85c-19.55,105.73,143.93,198.4,124.05,232.19c-17.93,30.63-145.58-55.79-337.45-55.65
	c-137.32,0.08-248.88,44.44-258.44,20.51c-9.4-23.53,99.59-63.85,97.42-131.09c-1.44-45.08-51.26-53.56-79.53-112.56
	c-40.05-83.54-10-212.42,46.55-232.8c61.23-22.06,100.81,102,252.2,141.62c116.53,30.53,214.13-11.3,226.98,21.38
	C1217.51-155.78,1146.73-130.86,1134.9-66.85z"/>
<path class="st3" d="M342.26,1014.16c-35.44,89.32-50,376-174,174c-50.27-81.9-260.41-131.94-174-174c226-110,77.9-174,174-174
	S463.26,709.16,342.26,1014.16z"/>
<path class="st3" d="M2510.73,568.17c47.75,83.4-62.47-68.01-174,174c-40.22,87.28-169.47,69.99-174-174
	c-4.66-251.31-163.47-79.01,174-174C2429.23,368.14,2345.26,279.16,2510.73,568.17z"/>
<path class="st1" d="M343.7,48.07c19.92-15.13,76.91-58.43,121.45-42.88c74.68,26.06,101.94,213.17,33.77,273.44
	c-46.32,40.96-109.99-0.25-157.71,47.11c-46.58,46.22-10.26,109.64-47.5,140.35C226.1,521.85,0.48,400.29,10.54,328.5
	c2.28-16.28,15.12-18.83,127.94-92.97c61.98-40.73,93.36-61.47,112.26-79.73C302.85,105.44,297.54,83.14,343.7,48.07z"/>
<path class="st2" d="M295-467c18.85,39.22-47.51,117.02-181,271C40.87-111.64,11.46-85.19-16.87-91.98
	c-36.62-8.78-31.64-63.53-80.49-140.42C-153.32-320.49-200.53-312.68-261-390c-78.04-99.78-96.18-236.53-67-253
	c38.5-21.73,131.13,181.84,280,176c64.03-2.51,81.73-41.53,175-46C151.93-514.2,269.61-519.84,295-467z"/>
<path class="st3" d="M2847.2,1274.22c-19.55,105.73,143.93,198.4,124.05,232.19c-17.93,30.63-145.58-55.79-337.45-55.65
	c-137.32,0.08-248.88,44.44-258.44,20.51c-9.4-23.53,99.59-63.85,97.42-131.09c-1.44-45.08-51.26-53.56-79.53-112.56
	c-40.05-83.54-10-212.42,46.55-232.8c61.23-22.06,100.81,102,252.2,141.62c116.53,30.53,214.13-11.3,226.98,21.38
	C2929.81,1185.29,2859.03,1210.21,2847.2,1274.22z"/>
<path class="st1" d="M605.2,1426.77c52.37,140.73-67.66,290.64-150.91,357.54c-119,95.61-313.2,142.42-408.61,65
	c-65.16-52.87-37.83-126-125.37-199.66c-72.4-60.89-119.74-34.93-167.16-85.9c-90.38-97.15-49.01-331.91,37.17-359.86
	c76.56-24.82,121.49,135.38,276.28,153.23c146.3,16.88,201.49-115.25,346.22-88C496.68,1284.84,575.72,1347.57,605.2,1426.77z"/>
<path class="st1" d="M2729-393c-8.98,8.52-28.31,28.67-61,48c-26.08,15.42-74.09,43.8-133,35c-17.78-2.66-71.47-10.68-82.13-41.83
	C2434.2-406.36,2571.8-460.6,2564-534c-8.85-83.28-196.3-110.93-189-152c6.73-37.82,172.55-53.04,189.28-54.58
	c26.66-2.45,40.92-2.09,65.6-9.18c71.79-20.62,85.19-62.17,111.81-57.99c51.66,8.12,19.89,167.55,112.31,257.75
	c77.1,75.25,199.58,62.22,198.26,76.73C3050.48-453.71,2833.51-492.19,2729-393z"/>
</svg>
